/* XPM */
static char *_d6a164b36d94816a347ea8f4e485b93It90Ix8hbsoHO4Yy[] = {
/* columns rows colors chars-per-pixel */
"64 64 116 2 ",
"   c None",
".  c #010101",
"X  c #080507",
"o  c #030509",
"O  c #0B0B0B",
"+  c #0D0E12",
"@  c #0B121C",
"#  c #22141C",
"$  c #2E1C1D",
"%  c #311F1F",
"&  c #0E1522",
"*  c #121A25",
"=  c #131C2B",
"-  c #291A21",
";  c #311F21",
":  c #1A2333",
">  c #332121",
",  c #382626",
"<  c #332429",
"1  c #2D2A37",
"2  c #212B3F",
"3  c #4D383B",
"4  c #5A4345",
"5  c #5E4448",
"6  c #41536C",
"7  c #435371",
"8  c #475975",
"9  c #495B77",
"0  c #495C78",
"q  c #676A7A",
"w  c #6A6D7E",
"e  c #C8A21F",
"r  c #D3AF26",
"t  c #D3AF2C",
"y  c #D3B025",
"u  c #D2AF31",
"i  c #4E6280",
"p  c #506788",
"a  c #5E769A",
"s  c #5F7A9D",
"d  c #607B9F",
"f  c #617CA0",
"g  c #B37C89",
"h  c #B7818C",
"j  c #BF9C93",
"k  c #97A1BC",
"l  c #98A2BD",
"z  c #C58F95",
"x  c #C59096",
"c  c #C39F97",
"v  c #C9979D",
"b  c #C59F99",
"n  c #C99E98",
"m  c #C3A097",
"M  c #C2A29B",
"N  c #C3A098",
"B  c #C4A098",
"V  c #C5A098",
"C  c #C4A198",
"Z  c #C5A198",
"A  c #C5A099",
"S  c #C4A199",
"D  c #C5A199",
"F  c #C6A098",
"G  c #C7A198",
"H  c #C6A099",
"J  c #C7A099",
"K  c #C6A199",
"L  c #C7A199",
"P  c #C4A19A",
"I  c #C6A09A",
"U  c #C7A09A",
"Y  c #C6A19A",
"T  c #C6A29A",
"R  c #C7A29B",
"E  c #C6A39B",
"W  c #C4A39C",
"Q  c #C6A099",
"!  c #C99FA0",
"~  c #CAA1A1",
"^  c #CBA1A2",
"/  c #CBA2A2",
"(  c #B6C4E0",
")  c #B7C5E1",
"_  c #B7C5E2",
"`  c #B8C5E1",
"'  c #B8C6E2",
"]  c #B8C6E3",
"[  c #B9C6E3",
"{  c #B8C7E3",
"}  c #B9C7E3",
"|  c #BAC6E2",
" . c #BAC7E2",
".. c #BAC7E3",
"X. c #B8C7E4",
"o. c #B9C7E4",
"O. c #BAC7E4",
"+. c #BAC8E3",
"@. c #B9C8E4",
"#. c #BAC8E4",
"$. c #BBC8E4",
"%. c #BAC8E5",
"&. c #BBC8E5",
"*. c #BBC9E5",
"=. c #BAC8E6",
"-. c #BBC9E6",
";. c #BCCAE5",
":. c #BCC9E6",
">. c #BCCAE7",
",. c #CDC7CE",
"<. c #CEC8CF",
"1. c #CFC9D0",
"2. c #D2CCD3",
"3. c #D4CED5",
"4. c #D6D1D9",
"5. c white",
/* pixels */
"                                                                                                                                ",
"                                                                                                                                ",
"                                                  , > > > , , > , > >                                                           ",
"                                                > > > > > > > > > > > >                                                         ",
"                                            , > > ; c c j c c c N j > ; > >                                                     ",
"                                            ; % > c c N N c c c c N j > > -                                                     ",
"                                            > % > c c c N N N N N c c ; ; >                                                     ",
"                                        > ; % % > c c N N N N c c c c > ; > > ,                                                 ",
"                                        > % % c c c c c C c S c c c c c c ; ; >                                                 ",
"                                        > > ; c S c C c c c c c c c c c c % > >                                                 ",
"                                        > > % c C c c c c c c c c c c c c % > >                                                 ",
"                                        > > c c c c c c c c c c c c c c c c > >                                                 ",
"                                        > > c C c c c c c c c c c c N N N N > >                                                 ",
"                                      , % % c c c c c c c c c c c c j N c c > > >                                               ",
"                                      z > > C c C c L c c c c c c c c S N S > > z                                               ",
"                                      z % > c G c C c C c C C c S c b c c W > > z                                               ",
"                                      z > > m > > > > , c c m C 4 # < - 3 N , > x                                               ",
"                                      z c c S <.q > q 2.m c S m 3.w 1 w 3.m m m z                                               ",
"                                      z c c C <.w > w 4.N m N c <.w > w 3.N N m z                                               ",
"                                      z z c m c c c c c m m m c m N c c c m m z x                                               ",
"                                        z c C c c c C c m N N m N m m m m m m z                                                 ",
"                                        v z c C c c S c N m m c m S N m m b z z                                                 ",
"                                          z z n b c S S c c c c S S m N S z z 5.                                                ",
"                                          X . z S N c c c c g 5 4 4 4 4 4 4 . X                                                 ",
"                                        . . . . z c c c h g g 4 5 4 5 4 4 4 . . .                                               ",
"                                      o . >.o.. . z S c c c S b c b c z . _ o.] . .                                             ",
"                                    . . >.>.>.+ . X z b c c b b b C z . . #.#.#.+.. +                                           ",
"                                  . . _ #.>.#.. . . X x z x z x z z X . . #.#.#.#.. . X                                         ",
"                                  X . +.#.;.#.. . . . X ! ~ ~ ~ . . . . . ] #.#.#.. . .                                         ",
"                                . . o _ #.#.#.. . . . . . ~ ~ o . . . . . o.;.#.#.. . . O                                       ",
"                                . . . ] >.#.#.. . + O . . ~ ~ . . . . . . o.;.o._ . . . X                                       ",
"                                . . . . o.#.#.o.#.] l d f + X a f f ;.#.#.o.>.o.. . . . X                                       ",
"                                . . . . . o.;.;.:.;.l f f p 7 f f f ;.] ;.] ] . . . . . .                                       ",
"                                o . . . . . o.o.o.;.l f f f f f f f ] $.] $. .. . . . . .                                       ",
"                                . . . o . . :.o.:.o.l f f f f f f f ;.$.] #.+.. . . . . .                                       ",
"                                b S b b b b :.o.:.:.l f f f f f f f o.;.;.] +.b b b S S S                                       ",
"                                S S L b U U ;.:.o.o.k f d f f f f f ] ] ] ] $.n b L b b L                                       ",
"                                b n n b b b :.o.:.o.k f f f f f f f  .+.+.] ] b L b b n b                                       ",
"                                n S S S b U o.o.:.o.l f f f f f f f ] +.+.;.$.n n S S n L                                       ",
"                                b n b b n b :.:.:.:.l f f f f f f f ] ] #.] ] b L S b S b                                       ",
"                                S L C n n b ;.#.#.o.k f f f d d f f ;.;.] ] | c n S L n L                                       ",
"                                r r u t y t o.#.o.] k f f i 6 d f f #.] ] ] ` G L b S S L                                       ",
"                                r u t y y y k l l l k f f 8 . 8 s d k k k k k L S n n S S                                       ",
"                                S n S b S b . . . . . . . 8 d . . . . . . . . n L C b L L                                       ",
"                                S n L L n W 0 8 0 0 0 0 9 f f 0 8 8 8 8 8 0 8 L b S S L L                                       ",
"                                  e u S b n f f f f f f f f d d f f f f f d 8 c S n b L                                         ",
"                                    S n b . f f f f f f : : : : d f f f f d 0 . c b S                                           ",
"                                      S   . d f f f f f 0 0 * s f f f f f d 0 .   n                                             ",
"                                          . d f f f f f s 0 = f f s f f f f 9 o                                                 ",
"                                          . f f d f f f f 0 = s f f f f f s 9 o                                                 ",
"                                          . d f f f f f f 8 @ f f f f f f s 0 o                                                 ",
"                                          . d f f f f f f 9 @ s f f f f f f 0 o                                                 ",
"                                          . d f f f f f f 8 & s f f f f f f 0 o                                                 ",
"                                          . d d f f f f f 0 & s f f f f f f 0 o                                                 ",
"                                          . d d f f f f f 0 @ f f f f f f f 0 .                                                 ",
"                                          . d f s d s f f 0 @ f f d s s f f 0 .                                                 ",
"                                      X . . 8 8 0 0 8 0 0 0 @ 8 0 0 8 0 8 8 0 . . O                                             ",
"                                      . . . . . . . . . . . . . . . . . . . . . . X                                             ",
"                                      . . . . . . . . . . . . . . . . . . . . . . O                                             ",
"                                      X . . . . . . . . . .   X . . . . . X . . . O                                             ",
"                                                                                                                                ",
"                                                                                                                                ",
"                                                                                                                                ",
"                                                                                                                                "
};
