/* XPM */
static char *_f97733798d040799355700c72d44a47IuIqM2KUmTGqK6As[] = {
/* columns rows colors chars-per-pixel */
"64 64 117 2 ",
"   c #859502",
".  c #49973E",
"X  c #7DD857",
"o  c #809305",
"O  c #628B18",
"+  c #5CAF47",
"@  c #47943D",
"#  c #70C851",
"$  c #77D154",
"%  c #3E8A3A",
"&  c #807F78",
"*  c #6B6A18",
"=  c #7CD656",
"-  c #77D054",
";  c #55462B",
":  c #7E8A08",
">  c #54A544",
",  c #74CC52",
"<  c #807E7E",
"1  c #6DC44F",
"2  c #51A142",
"3  c #5A4E27",
"4  c #4E3C31",
"5  c #4B9A3F",
"6  c #59AA46",
"7  c #4F3D30",
"8  c #839104",
"9  c #71C951",
"0  c #7CD756",
"q  c #56482A",
"w  c #4F3C30",
"e  c #66611D",
"r  c #49973F",
"t  c #48963E",
"y  c #818E06",
"u  c #79D255",
"i  c #69BE4D",
"p  c #508827",
"a  c #78810D",
"s  c #717314",
"d  c #63B74A",
"f  c #3D8839",
"g  c #807E7C",
"h  c #77451A",
"j  c #834F23",
"k  c #7B840B",
"l  c #635D1F",
"z  c #757B10",
"x  c #925D2E",
"c  c #51402F",
"v  c #747A10",
"b  c #A06C3F",
"n  c #4C9B40",
"m  c #7ED957",
"M  c #4F9E41",
"N  c #A97C4C",
"B  c #4D9D41",
"V  c #7BD556",
"C  c #74CD53",
"Z  c #B88B5C",
"A  c #5FB249",
"S  c #57A945",
"D  c #5EB148",
"F  c #73CB52",
"G  c #79D355",
"H  c #72CA52",
"J  c #6EC550",
"K  c #4D9C40",
"L  c #5BAE47",
"P  c #3D8939",
"I  c #6FC750",
"U  c #797473",
"Y  c #5A4F26",
"T  c #737811",
"R  c #594E27",
"E  c #7F8B07",
"W  c #54A443",
"Q  c #7B9208",
"!  c #4A983F",
"~  c #59AB46",
"^  c #503D30",
"/  c #787F0D",
"(  c #807E7D",
")  c #655A54",
"_  c #503F2F",
"`  c #6F7214",
"'  c gray55",
"]  c gray61",
"[  c #77C558",
"{  c #50A042",
"}  c #78D254",
"|  c #68BA4E",
" . c #47953E",
".. c #428F3B",
"X. c #9C9C9B",
"o. c #9C9A99",
"O. c #52A243",
"+. c #56A744",
"@. c #55A644",
"#. c #7AD555",
"$. c #67BC4C",
"%. c #558923",
"&. c #68BE4D",
"*. c #65BA4B",
"=. c #44913C",
"-. c #7DD756",
";. c #74CD52",
":. c #797471",
">. c #62B64A",
",. c #53422D",
"<. c #6E7015",
"1. c #6E6F16",
"2. c #5D5324",
"3. c #605822",
"4. c #5AAC46",
"5. c #64601E",
"6. c #51402E",
/* pixels */
"  . X o                         O                                 + o                       @                                   ",
"    # $                         X                               % X o       & *         o = -           & ; :       > ,         ",
"                    < *         X                               1 2         3 4       5 X 6             3 7 8   o 9 0 o         ",
"                    q w                                                     * e     r X t               * y   u X i o           ",
"                  p a s                           O                                 d f                       r         g *     ",
"          h h h h h h h h h h h h h h h h h h h h h h h h h h h h h h h h h h h h h h h h h h h h h h h h h h h h h     q w :   ",
"          h j j j j j j j j j j j j j j j j j j j j j j j j j j j j j j j j j j j j j j j j j j j j j j j j j j j h     a k 8   ",
"          h j j j j j j j j j j j j j j j j j j j j j j j j j j j j j j j j j j j j j j j j j j j j j j j j j j j h             ",
"          h j j j j j j j j j j j j j j j j j j j j j j j j j j j j j j j j j j j j j j j j j j j j j j j j j j j h             ",
"  & l z   h j j j x x x x x x x x x x x x x x x x x x x x x x x x x x x x x x x x x x x x x x x x x x x x x j j j h r o         ",
"  c 7 v   h j j j x b b b b b b b b b b b b b b b b b b b b b b b b b b b b b b b b b b b b b b b b b b b x j j j h - n         ",
"5 a y     h j j j x b b b b b b b b b b b b b b b b b b b b b b b b b b b b b b b b b b b b b b b b b b b x j j j h m           ",
"$ X M     h j j j x b b b N b b b N b b b N b b b N b b b N b b b N b b b N b b b N b b b N b b b N b b b x j j j h m           ",
"  B $ V C h j j j x b b N Z N b N Z N b N Z N b N Z N b N Z N b N Z N b N Z N b N Z N b N Z N b N Z N b b x j j j h =           ",
"      % A h j j j x b b N Z N b N Z N b N Z N b N Z N b N Z N b N Z N b N Z N b N Z N b N Z N b N Z N b b x j j j h p           ",
"          h j j j x b b N Z N b N Z N b N Z N b N Z N b N Z N b N Z N b N Z N b N Z N b N Z N b N Z N b b x j j j h             ",
"          h j j j x b b N Z N b N Z N b N Z N b N Z N b N Z N b N Z N b N Z N b N Z N b N Z N b N Z N b b x j j j h             ",
"          h j j j x b b N Z N b N Z N b N Z N b N Z N b N Z N b N Z N b N Z N b N Z N b N Z N b N Z N b b x j j j h           S ",
"          h j j j x b b N Z N b N Z N b N Z N b N Z N b N Z N b N Z N b N Z N b N Z N b N Z N b N Z N b b x j j j h       D X 0 ",
"d         h j j j x b b N Z N b N Z N b N Z N b N Z N b N Z N b N Z N b N Z N b N Z N b N Z N b N Z N b b x j j j h   o X F o   ",
"G H       h j j j x b b N Z N b N Z N b N Z N b N Z N b N Z N b N Z N b N Z N b N Z N b N Z N b N Z N b b x j j j h   + J       ",
"  V K     h j j j x b b N Z N b N Z N b N Z N b N Z N b N Z N b N Z N b N Z N b N Z N b N Z N b N Z N b b x j j j h             ",
"  L G     h j j j x b b N Z N b N Z N b N Z N b N Z N b N Z N b N Z N b N Z N b N Z N b N Z N b N Z N b b x j j j h             ",
"  P m     h j j j x b b N Z N b N Z N b N Z N b N Z N b N Z N b N Z N b N Z N b N Z N b N Z N b N Z N b b x j j j h             ",
"    I     h j j j x b b N Z N b N Z N b N Z N b N Z N b N Z N b N Z N b N Z N b N Z N b N Z N b N Z N b b x j j j h   U Y T     ",
"          h j j j x b b N Z N b N Z N b N Z N b N Z N b N Z N b N Z N b N Z N b N Z N b N Z N b N Z N b b x j j j h   R 7 E     ",
"          h j j j x b b N Z N b N Z N b N Z N b N Z N b N Z N b N Z N b N Z N b N Z N b N Z N b N Z N b b x j j j h             ",
"          h j j j x b b N Z N b N Z N b N Z N b N Z N b N Z N b N Z N b N Z N b N Z N b N Z N b N Z N b b x j j j h             ",
"          h j j j x b b N Z N b N Z N b N Z N b N Z N b N Z N b N Z N b N Z N b N Z N b N Z N b N Z N b b x j j j h             ",
"          h j j j x b b N Z N b N Z N b N Z N b N Z N b N Z N b N Z N b N Z N b N Z N b N Z N b N Z N b b x j j j h             ",
"          h j j j x b b N Z N b N Z N b N Z N b N Z N b N Z N b N Z N b N Z N b N Z N b N Z N b N Z N b b x j j j h             ",
"          h j j j x b b N Z N b N Z N b N Z N b N Z N b N Z N b N Z N b N Z N b N Z N b N Z N b N Z N b b x j j j h             ",
"          h j j j x b b N Z N b N Z N b N Z N b N Z N b N Z N b N Z N b N Z N b N Z N b N Z N b N Z N b b x j j j h O           ",
"      W = h j j j x b b N Z N b N Z N b N Z N b N Z N b N Z N b N Z N b N Z N b N Z N b N Z N b N Z N b b x j j j h = Q         ",
"  o = 0 o h j j j x b b N Z N b N Z N b N Z N b N Z N b N Z N b N Z N b N Z N b N Z N b N Z N b N Z N b b x j j j h X           ",
"  o !     h j j j x b b N Z N b N Z N b N Z N b N Z N b N Z N b N Z N b N Z N b N Z N b N Z N b N Z N b b x j j j h ~           ",
"          h j j j x b b N Z N b N Z N b N Z N b N Z N b N Z N b N Z N b N Z N b N Z N b N Z N b N Z N b b x j j j h             ",
"      y y h j j j x b b N Z N b N Z N b N Z N b N Z N b N Z N b N Z N b N Z N b N Z N b N Z N b N Z N b b x j j j h             ",
"      ^ / h j j j x b b N Z N b N Z N b N Z N b N Z N b N Z N b N Z N b N Z N b N Z N b N Z N b N Z N b b x j j j h     (       ",
"      ^ ) h j j j x b b N Z N b N Z N b N Z N b N Z N b N Z N b N Z N b N Z N b N Z N b N Z N b N Z N b b x j j j h     q _     ",
"      T ` h j j j x b b N Z N b N Z N b N Z N b N Z N b N Z N b N Z N b N Z N b N Z N b N Z N b N Z N b b x j j j h     a y     ",
"          h j j j x b b N Z N b N Z N b N Z N b N Z N ' ' ' ' ' ' ' ' b N Z N b N Z N b N Z N b N Z N b b x j j j h             ",
"      F   h j j j x b b N Z N b N Z N b N Z N b N Z ' ] ] ] ] ] ] ] ] ' N Z N b N Z N b N Z N b N Z N b b x j j j h r o         ",
"      G t h j j j x b b N Z N b N Z N b N Z N b N ' ] ' ' ' ' ' ' ' ' ] ' Z N b N Z N b N Z N b N Z N b b x j j j h [ {         ",
"      } t h j j j x b b N Z N b N Z N b N Z N b N ' ] ' N Z N b N Z ' ] ' Z N b N Z N b N Z N b N Z N b b x j j j h | #         ",
"      =  .h j j j x b b N Z N b N Z N b N Z N b ' ] ' b N Z N b N Z N ' ] ' N b N Z N b N Z N b N Z N b b x j j j h o !         ",
"      X   h j j j x b b N Z N b N Z N b N Z N b ' ] ' b N ' ' ' ' Z N ' ] ' N b N Z N b N Z N b N Z N b b x j j j h             ",
"      X   h j j j x b b N Z N b N Z N b N Z N b ' ] ' b ' ] ] ] ] ' N ' ] ' N b N Z N b N Z N b N Z N b b x j j j h             ",
"    ..0   h j j j x b b N Z N b N Z N b N Z N b N ' X.' ] ] ' ' ] ] ' o.' Z N b N Z N b N Z N b N Z N b b x j j j h           O.",
"    o r   h j j j x b b N Z N b N Z N b N Z N b N Z ' ' ] ] ' ' ] ] ' ' N Z N b N Z N b N Z N b N Z N b b x j j j h           - ",
"          h j j j x b b b N b b b N b b b N b b b N b ' ] ] ] ] ] ] ' b b N b b b N b b b N b b b N b b b x j j j h         P X ",
"          h j j j x b b b b b b b b b b b b b b b b b b ' ] ] ] ] ' b b b b b b b b b b b b b b b b b b b x j j j h         +.O.",
"          h j j j x b b b b b b b b b b b b b b b b b b b ' ' ' ' b b b b b b b b b b b b b b b b b b b b x j j j h             ",
"          h j j j x x x x x x x x x x x x x x x x x x x x x x x x x x x x x x x x x x x x x x x x x x x x x j j j h             ",
"          h j j j j j j j j j j j j j j j j j j j j j j j j j j j j j j j j j j j j j j j j j j j j j j j j j j j h             ",
"          h j j j j j j j j j j j j j j j j j j j j j j j j j j j j j j j j j j j j j j j j j j j j j j j j j j j h             ",
"          h j j j j j j j j j j j j j j j j j j j j j j j j j j j j j j j j j j j j j j j j j j j j j j j j j j j h             ",
"          h h h h h h h h h h h h h h h h h h h h h h h h h h h h h h h h h h h h h h h h h h h h h h h h h h h h h             ",
"          X                 @.#.            $.%.                            X               &.%.            %.*.                ",
"        O.=.                %.#.          r -.                            H J             C G                                   ",
"                                        o 0  .              g y y       Q ;.            r X                                     ",
"            :._                         $ >.                3 ,.<.                      =  .                        ( _ :       ",
"            1.2.                      Q ;.                  * 3.y                       4.                          5.6.8       ",
"                                                                                                                    a y         "
};
