/* XPM */
static char *f45365a307c8428fdb89751d73ef4dd29ROJQec21ts6K4HJ[] = {
/* columns rows colors chars-per-pixel */
"64 64 162 2 ",
"   c #689F38",
".  c #6AA03B",
"X  c #79AA4D",
"o  c #6BA13C",
"O  c #669D37",
"+  c #669C37",
"@  c #81AE54",
"#  c #D4E0AC",
"$  c #88B35C",
"%  c #679D37",
"&  c #5C9233",
"*  c #649B36",
"=  c #5B9132",
"-  c #F6E16E",
";  c #E1E7B4",
":  c #679E38",
">  c #629735",
",  c #5C9232",
"<  c #659C37",
"1  c #588C30",
"2  c #90B865",
"3  c #619534",
"4  c #446B25",
"5  c #619635",
"6  c #426924",
"7  c #639835",
"8  c #598F31",
"9  c #639936",
"0  c #568C30",
"q  c #53862E",
"w  c #6EA340",
"e  c #699F39",
"r  c #54872E",
"t  c #50822C",
"y  c #436A24",
"u  c #88B362",
"i  c #6FA442",
"p  c #689F39",
"a  c #649936",
"s  c #6CA23D",
"d  c #5B9232",
"f  c #629635",
"g  c #466E26",
"h  c #568A30",
"j  c #659B36",
"k  c #51852D",
"l  c #426A24",
"z  c #5F9334",
"x  c #72A645",
"c  c #89B464",
"v  c #689B3B",
"b  c #70A442",
"n  c #416824",
"m  c #578C30",
"M  c #609434",
"N  c #6FA341",
"B  c #8CB668",
"V  c #6DA23E",
"C  c #89B463",
"Z  c #74A647",
"A  c #55882F",
"S  c #629835",
"D  c #578D30",
"F  c #558B2F",
"G  c #8EB86B",
"H  c #436B25",
"J  c #588E31",
"K  c #53872E",
"L  c #8BB566",
"P  c #578B30",
"I  c #54882F",
"U  c #52842D",
"Y  c #588E30",
"T  c #639836",
"R  c #3F6623",
"E  c #5D8F32",
"W  c #3B5E20",
"Q  c #609534",
"!  c #69A039",
"~  c #71A544",
"^  c #8BB667",
"/  c #406523",
"(  c #5F9233",
")  c #456D26",
"_  c #6DA33F",
"`  c #86B25F",
"'  c #679E37",
"]  c #6BA13D",
"[  c #639A36",
"{  c #87B361",
"}  c #5A9032",
"|  c #69A03A",
" . c #74A747",
".. c #4A7228",
"X. c #52832D",
"o. c #DAE4B2",
"O. c #75A747",
"+. c #5A9031",
"@. c #3D6322",
"#. c #568A2F",
"$. c #3E6422",
"%. c #F9E063",
"&. c #D1E1B7",
"*. c #4D7D2A",
"=. c #426824",
"-. c #6CA13D",
";. c #609334",
":. c #689E38",
">. c #659B37",
",. c #74A646",
"<. c #72A544",
"1. c #8AB565",
"2. c #E7EBBA",
"3. c #F7E169",
"4. c #7BAB4E",
"5. c #CBDEAF",
"6. c #649A36",
"7. c #486F27",
"8. c #6BA03C",
"9. c #639735",
"0. c #5F9333",
"q. c #51842D",
"w. c #5D9136",
"e. c #85B160",
"r. c #639736",
"t. c #6AA03C",
"y. c #598C32",
"u. c #446A28",
"i. c #6DA141",
"p. c #82AA60",
"a. c #385B1F",
"s. c #54892F",
"d. c #3C6121",
"f. c #55892F",
"g. c #52872E",
"h. c #3F6522",
"j. c #50832C",
"k. c #52852D",
"l. c #446C25",
"z. c #3C6021",
"x. c #5A8B31",
"c. c #406723",
"v. c #619634",
"b. c #4E7F2B",
"n. c #3D6221",
"m. c #73A646",
"M. c #406623",
"N. c #86B260",
"B. c #436A25",
"V. c #71A543",
"C. c #70A543",
"Z. c #476E26",
"A. c #5C8D31",
"S. c #446A25",
"D. c #598930",
"F. c #416623",
"G. c #3F6422",
"H. c #466D26",
"J. c #5F9133",
"K. c #5E9133",
"L. c #456D25",
"P. c #5B9032",
/* pixels */
"  . X o                                                     O   +                                                               ",
". @ # $                                     %             % & * = %                                               %             ",
"X # - ;                             %   : > , O             < = O                                               < 1 O           ",
"o $ ; 2                           O = + 3 4 5                 +                                                 3 6 7           ",
"                      + = %         % =     O                           < 8 *   9 0 q *                 w e     r +             ",
"                    % = %           O O : > , O                         < 8 8 + 0 t y 5                 u i p   y a p s         ",
"                      O           % d 5 f g >                             * h j k l z :                 x c s   v p b u         ",
"                                    5 n % f :                             7 6 3 m M :                   N B V   C b u Z         ",
"  O                                 % =                                           + A S   * D F             V G                 ",
"* & O O                               %                                           a H q + J K 0             s L           %     ",
"8 < O P                                                     %                     : f I j U y M             p s         < 1 O   ",
"Y O T R                                                   O = +                     T R 3 n E %                         3 6 7   ",
"W Q A * ! ~ ^ G                 o $ ; 2                 + = O     * = +                                                   + A * ",
"/ ( ) 5 _ ` b V                 X # - ;                   % O   O & <                                   O                 a ) 5 ",
"a ' a ] V s p   V s p           . @ # $             %     < & O   %                                     = <               : a : ",
"    s C C s     G L s             . X o           O = + + = *                                           [ = O                   ",
"  s { w     s C                                 + = O             * = +     < < + 8 D <                                         ",
"  p s e     p s                                   %       %     O & <     % } D O * P [     %                       |  .        ",
"                                                        * & %     %         < 8 P 5 ..X.  < } <                   | @ o.O.|     ",
"                                                        +.*                   + @.#.E $.+ 8 D <                    .o.%.&.O.    ",
"                        +     +         +                                       R P O + *.=.a                       O.&.        ",
"                        = < % = O     O = %     e -.p                           T O % = =.;.:.                      | O.        ",
"        %   %           * , < O +.O < = O       _ ` i e e s p                         O a :.                                    ",
"        = < = +           * = + Y >.= [         ! ~ u w w { s                                                                   ",
"        + = O                     O = +                 C s                                                                     ",
"          %                         %             p -.e s p                     . ,.|                                 O         ",
"                                                  -.` <.                        $ # @ .                             % = %       ",
"                                                  e <.1.                        2.3.o.4.                              + = %     ",
"  O +.Y < <                                         s C                   . X o 4.5. .              s C w e e w                 ",
"O O >.O 8 8 O                                       p s       O         . @ # $ . ,.|               p s { s i u                 ",
"8 8 8 * [ P j     % p s s p             %   %               O P         X # - ;                         s s ` ~ e s p           ",
"< 6.D Y f 7.1 + + = 8.C C s             = < = +             T R         o $ ; 2                           e _ ! w { s           ",
"    9.W Y > 4 0.q.w.e.w                 + = O                   r +                                     1.<.e   C s             ",
"    T / +.+ 3 #.6 r.-.: O                 %                     y a                                     x c s   s p             ",
"    :.a : t.y.u.a :.% = 8 <                                     a :.                                    w C s                   ",
"        w { i.p.      + F 8 O                                                                           ! _ e                   ",
"+ 8 D 9   s { w + = *   a.r O + Y O                                               O 8 F Y *                       O = [         ",
"  * s.0   p t.p   >.1 [ d.U * +.f.+             O     O                             < 8 g.J O   O O O               < =       O ",
"% 7 h.j.  < } <   7 h.k.E l.Q f.y a             = < % = %                       O O O O R U + % m f.} O               O     % = ",
"= 5 z.j.+ 8 D <   9.z.j.% M #.@.3 :             [ = O + = %                     Y Y +.+ x.n > = q.c.v.                        + ",
"a.r > =.S t 6 3 w | _ !   a 4 3               +                                 3 6 b.j.+   % = =.a                   +         ",
"n.#.+ a t l 0.: u m.` _   :.a :             % = O                               : 0.M.z.= %   % a :.                % = O       ",
"7 O     6 0.:   ~ N.i e                       O = %                               : 7 9.O                             O = %     ",
"        3 :     ! _ e                           +                                                                       +       ",
"                              +   O                 O Y + : * Y r +                                     + = 9 +.                ",
"                            % = * & %               % +.+.>.J g.y a                                       < & *                 ",
"      %                       O = <                   O f.* f.c.a :.                          %             %                   ",
"    % =                         +                       R 5 J (                             % =                                 ",
"    a =.+           . 4.                                        q 6.: + F D O             * = +                                 ",
"    :.a P O       | @ o. .|                                     c.h >.+.g.J O           O & <           O       O O             ",
"        y a       ,.# 3.5.,.                                    Q #.6.f.6 >               %             8 <   % D 8 O           ",
"        3 :       . $ 2.4..                                     3 6 ( R 3 :                             F 8 < = F D O           ",
"        ! _ e   ! w w ! o $ ; 2         +.*       + A S   * 0 q.                          * = + 2 ; $ o < 8 j Y = %             ",
"        _ ` i e ~ c C _ X # - ;         * & %     a B.t + J j.R                         * , <   ; - # X < = >.+.%               ",
"        e i N.<.^ V.C._ . @ # $         O O       : ( n.< f.y E                         = <     $ # @ .   %   O                 ",
"          e <.1.G V.L G   . X o         = %         9.W < J M %                         +       o X .                           ",
"  + +           w { s                   + = O           < < O = Y O                                               + +           ",
"* 8 } O         e s p                   : <             8 8 < O #.j     O                                       O } 8 *       O ",
"D D >.                          %       O & <           * J h 6.Z.r + % +.%                                     O < 8 D a :.% +.",
"F D O                           = %       * = +           v.c.q A.n > = Y O                                     = O * Y =.a O Y ",
"=.7 < <           O = [         n 5                       a y r   [ t $.                    * +.            % = 3 S.D.F.% E G.W ",
"( 6.} 8             < =         3 P O                     :.a + O 1 H E                   < & *               % : ;.) E M H.J.K.",
"6 1 < O               O         v.L.a                             O a :                 O & <                     : a : P.9.T 4 ",
"3 <                             % f :                                                     O                             +   : 3 "
};
