/* XPM */
static char *_74a2fbddab44b7d94fd0d4beac49c2f9XTFB3PdAX9j6SxL[] = {
/* columns rows colors chars-per-pixel */
"64 64 185 2 ",
"   c #859502",
".  c #49973E",
"X  c #7DD857",
"o  c #809305",
"O  c #628B18",
"+  c #5CAF47",
"@  c #47943D",
"#  c #70C851",
"$  c #77D154",
"%  c #3E8A3A",
"&  c #807F78",
"*  c #6B6A18",
"=  c #7CD656",
"-  c #77D054",
";  c #55462B",
":  c #7E8A08",
">  c #54A544",
",  c #74CC52",
"<  c #807E7E",
"1  c #6DC44F",
"2  c #51A142",
"3  c #5A4E27",
"4  c #4E3C31",
"5  c #4B9A3F",
"6  c #59AA46",
"7  c #4F3D30",
"8  c #839104",
"9  c #71C951",
"0  c #7CD756",
"q  c #56482A",
"w  c #4F3C30",
"e  c #66611D",
"r  c #49973F",
"t  c #48963E",
"y  c #818E06",
"u  c #79D255",
"i  c #69BE4D",
"p  c #508827",
"a  c #78810D",
"s  c #717314",
"d  c #63B74A",
"f  c #3D8839",
"g  c #807E7C",
"h  c #54A443",
"j  c #6CC34F",
"k  c #5EB148",
"l  c #7AD455",
"z  c #6AC04E",
"x  c #69BF4D",
"c  c #79D355",
"v  c #594C28",
"b  c #777E0E",
"n  c #7BD556",
"m  c #51A242",
"M  c #7B840B",
"N  c #59AB46",
"B  c #615A21",
"V  c #645F1E",
"C  c #7C7976",
"Z  c #55472B",
"A  c #598A1F",
"S  c #7AD555",
"D  c #75CE53",
"F  c #67631C",
"G  c #757A10",
"H  c #72C951",
"J  c #635D1F",
"K  c #757B10",
"L  c #6EC550",
"P  c #74CD53",
"I  c #53442C",
"U  c #52422D",
"Y  c #4D9C40",
"T  c #78D154",
"R  c #51402F",
"E  c #747A10",
"W  c #55A644",
"Q  c #7DD756",
"!  c #67BC4C",
"~  c #52412E",
"^  c #4C9B40",
"/  c #72CA51",
"(  c #73CB52",
")  c #6BC24E",
"_  c #7B9208",
"`  c #7ED957",
"'  c #58AA46",
"]  c #4F9E41",
"[  c #3D8939",
"{  c #7D8809",
"}  c #767C0F",
"|  c #76D053",
" . c #52A243",
".. c #4D9D41",
"X. c #76CF53",
"o. c #5BAD47",
"O. c #503F2F",
"+. c #558923",
"@. c #5FB249",
"#. c #78D254",
"$. c #747811",
"%. c #5BAE47",
"&. c #6EC650",
"*. c #48973E",
"=. c #625B20",
"-. c #57A945",
";. c #5B5026",
":. c #43903C",
">. c #717513",
",. c #6FC650",
"<. c #72CA52",
"1. c #62B64A",
"2. c #4A983F",
"3. c #75CD53",
"4. c #6DC34F",
"5. c #81826A",
"6. c #53442D",
"7. c #6FC750",
"8. c #797473",
"9. c #5A4F26",
"0. c #737811",
"q. c #67651B",
"w. c #7F8B07",
"e. c #594E27",
"r. c #70C750",
"t. c #47953E",
"y. c #7D8709",
"u. c #438F3C",
"i. c #6E6F16",
"p. c #68BE4D",
"a. c #807E7D",
"s. c #503E30",
"d. c #56A745",
"f. c #54452C",
"g. c #78800D",
"h. c #64601E",
"j. c #756F6C",
"k. c #5B5126",
"l. c #787F0D",
"z. c #503D30",
"x. c #5D5424",
"c. c #67641B",
"v. c #727612",
"b. c #6B6B18",
"n. c #428F3B",
"m. c #73CC52",
"M. c #50A042",
"N. c #5FB349",
"B. c #5DB048",
"V. c #655A54",
"C. c #5F5623",
"Z. c #787472",
"A. c #65BA4B",
"S. c #6F7214",
"D. c #6AC14E",
"F. c #5D5324",
"G. c #58AA45",
"H. c #67BD4C",
"J. c #838D2F",
"K. c #77C558",
"L. c #51402E",
"P. c #75706D",
"I. c #849211",
"U. c #68BA4E",
"Y. c #787471",
"T. c #5E5623",
"R. c #66631C",
"E. c #509F42",
"W. c #757C0F",
"Q. c #66BC4C",
"!. c #56A744",
"~. c #51412E",
"^. c #797471",
"/. c #5C5125",
"(. c #584C28",
"). c #6BC14E",
"_. c #625C20",
"`. c #63AC49",
"'. c #65B74B",
"]. c #44913C",
"[. c #74CD52",
"{. c #53422D",
"}. c #6E7015",
"|. c #605822",
" X c #5AAC46",
/* pixels */
"  . X o                         O                                 + o                       @                                   ",
"    # $                         X                               % X o       & *         o = -           & ; :       > ,         ",
"                    < *         X                               1 2         3 4       5 X 6             3 7 8   o 9 0 o         ",
"                    q w                                                     * e     r X t               * y   u X i o           ",
"                  p a s                           O                                 d f                       r         g *     ",
"              h X j                             k l           z                                 x                       q w :   ",
"          o = 0 o                           o = l o           c 2         & v b                 n m                     a M 8   ",
"          l 6                               = N               m X o       B ; V                 . =                             ",
"                        p         C Z a   A S                   9 D       F w G                   c H                           ",
"  & J K                 L P       I U y                           n Y                               T #             r o         ",
"  R 7 E                 o n o                                     W Q             % !               o r     g ~     - ^         ",
"5 a y                     / (                                       ) _         o ` '                       3 7     `           ",
"$ X ]                     [ = o                           { } {               p |  .                        * y     `           ",
"  ..$ n P d                 X.o.                          7 O.3               0 +.                                  =           ",
"      % @.#                 ' l                 o #._     $.g                 p                                     p           ",
"                              T _             % ` N                                         u                                   ",
"                                            o = 2                                           $ %.                                ",
"                                            + &.                        5 = !               *.=           & =.                -.",
"                          < =.                                      o = X *.      g I         l [         ;.w             k X 0 ",
"d               o ( :.    >.7                                     p n N           ;.7         9 ,.        : 8         o X ( o   ",
"c <.            Q 1.      : 8                   2.o               p               : 8           p                     + L       ",
"  n Y           p                                .= o                                                                           ",
"  %.c                                             3.1.                    >                                                     ",
"  [ `                                             Y 4.                5 ` u                   5.6.                              ",
"    7.                            o r                                 Q t                     Z O.              c     8.9.0.    ",
"                                  P +                               T 6           p           q.w.            $ 6     e.7 w.    ",
"            r.t.    y.y.        W =         p                       (           5 X u.                      _ X                 ",
"            / P     i.O.      p.X t         ) u                                 9 *.                                            ",
"            o = o   a.s.    ,.= o             n 2           C y                                 ] T o                           ",
"              2.o           d.o               *.X o         f.U                                   ! X o                         ",
"                                                9 ,.        g.y                                     d D                         ",
"                                h.;.j.y         +.=                                                                             ",
"          p                     a k.7 l.          r.  y { y           ) :.              % !                         O           ",
"      h = j                                           4 z.x.          c 2               = 2                         = _         ",
"  o = 0 o                                             c.&             X               f n       a.B v.            f X           ",
"  o 2.            +.S                                               W -                 p       >.7 b.            x N           ",
"                  n.=                     x m.                      T M.                        : 8                             ",
"      y y         N.7.                    o = o                     x o                                                         ",
"      z.l.        - 2                       P '         B.h           >.h.a.                        m.o                 a.      ",
"      z.V.        m.^           C.Z.        *.X o       *.X o         : 7 a       p (               A.-                 q O.    ",
"      0.S.        r.D.          F.3           r o         A.l           a y       #.2               +.X o               a y     ",
"                                                            X o                   1.                  9 W                       ",
"      (                                                     , G.                                        p           r o         ",
"      c t                                                   *.H.                                                  J.K.M.        ",
"      #.t                                                                                               L.P.      I.U.#         ",
"      = t.                                          ;.Y.                                                T.R.        o 2.        ",
"      X                     / u.                    F.i.        z           g                                                   ",
"      X                   + X                 r o             A Q         R O.a                                                 ",
"    n.0                 p X o                 X.E.              c ^       a W.y           r o                                  .",
"    o r                 S u.                  $ ^               d Q.                      $ E.                                - ",
"                                              `                                           X o           ( u.                [ X ",
"              a.                            _ 0           O                             f X           ( c                   !. .",
"              L.O.                                        l o                           N.,.          r                         ",
"              a y                                         / (             ~.^.          - M.                  a./.              ",
"                          z               a.(.            f = o           q i.          p                     { z.              ",
"             .            u m             y.4               ).l                                               _.B               ",
"            X             2 X o           i.F.              o l :.                                            `.'.              ",
"          #.'               X.E.                              p             ! A                               ` t.              ",
"          X                 W S             ! +.                            X               p.+.            +.A.                ",
"         .].                +.S           r Q                             <.L             P c                                   ",
"                                        o 0 t.              g y y       _ [.            r X                                     ",
"            ^.O.                        $ 1.                3 {.}.                      = t.                        a.O.:       ",
"            i.F.                      _ [.                  * |.y                        X                          h.L.8       ",
"                                                                                                                    a y         "
};
