/* XPM */
static char *dad9ba1ea1d446849da59577e354dbbfCc3MbXt25BUpKrnw[] = {
/* columns rows colors chars-per-pixel */
"32 32 2 1 ",
"  c #B44E08",
". c #979590",
/* pixels */
"   .      .      .      .      .",
"   .      .      .      .      .",
"   .      .      .      .      .",
"................................",
"      .      .      .      .    ",
"      .      .      .      .    ",
"      .      .      .      .    ",
"................................",
"   .      .      .      .      .",
"   .      .      .      .      .",
"   .      .      .      .      .",
"................................",
"      .      .      .      .    ",
"      .      .      .      .    ",
"      .      .      .      .    ",
"................................",
"   .      .      .      .      .",
"   .      .      .      .      .",
"   .      .      .      .      .",
"................................",
"      .      .      .      .    ",
"      .      .      .      .    ",
"      .      .      .      .    ",
"................................",
"   .      .      .      .      .",
"   .      .      .      .      .",
"   .      .      .      .      .",
"................................",
"      .      .      .      .    ",
"      .      .      .      .    ",
"      .      .      .      .    ",
"................................"
};
