/* XPM */
static char *edaedfc123ee4718a5cc9cd4b036fba5Hwdv7AMhUz7a4RUh[] = {
/* columns rows colors chars-per-pixel */
"64 64 176 2 ",
"   c None",
".  c #030302",
"X  c #040A06",
"o  c #090A07",
"O  c #0C0E09",
"+  c #0E100B",
"@  c #001D0F",
"#  c #12150E",
"$  c #161910",
"%  c #191D13",
"&  c #1D2216",
"*  c #1F2518",
"=  c #212619",
"-  c #242A1B",
";  c #292F1F",
":  c #2A301F",
">  c #2D3422",
",  c #333A26",
"<  c #005A2F",
"1  c #035C32",
"2  c #085F36",
"3  c #3F4D31",
"4  c #066135",
"5  c #096137",
"6  c #0B6439",
"7  c #0E6A3D",
"8  c #006F39",
"9  c #12653E",
"0  c #11693F",
"q  c #404930",
"w  c #455235",
"e  c #505C3C",
"r  c #0E6F41",
"t  c #146C42",
"y  c #1C6C45",
"u  c #1E6E48",
"i  c #156740",
"p  c #027D40",
"a  c #0C7D45",
"s  c #0F7041",
"d  c #147244",
"f  c #187347",
"g  c #1B764A",
"h  c #147B49",
"j  c #1D794D",
"k  c #107A46",
"l  c #1F7F50",
"z  c #226F4A",
"x  c #24714C",
"c  c #24784C",
"v  c #2B7652",
"b  c #217E51",
"n  c #2E7855",
"m  c #347C59",
"M  c #397F5D",
"N  c #317A57",
"B  c #535A49",
"V  c #5C6945",
"C  c #018D46",
"Z  c #0F844A",
"A  c #0D8A4C",
"S  c #0A8246",
"D  c #11824A",
"F  c #14894F",
"G  c #1A814E",
"H  c #00954A",
"J  c #0A944E",
"K  c #08984F",
"L  c #03944A",
"P  c #1A8B54",
"I  c #168A50",
"U  c #0C9952",
"Y  c #139453",
"T  c #129B56",
"R  c #1F9459",
"E  c #149D58",
"W  c #1B9E5C",
"Q  c #189757",
"!  c #238354",
"~  c #298357",
"^  c #268959",
"/  c #2B8D5D",
"(  c #218856",
")  c #37865F",
"_  c #25925C",
"`  c #2B915E",
"'  c #31925F",
"]  c #28A95B",
"[  c #3E8261",
"{  c #338D61",
"}  c #2B9561",
"|  c #249D61",
" . c #2C9C64",
".. c #329565",
"X. c #319964",
"o. c #339F69",
"O. c #3D9B6C",
"+. c #24A263",
"@. c #2AA265",
"#. c #33A56B",
"$. c #3AA46F",
"%. c #788A5A",
"&. c #438566",
"*. c #4A8A6B",
"=. c #559175",
"-. c #5A9478",
";. c #589377",
":. c #5CC170",
">. c #76CD7B",
",. c #899D67",
"<. c #8DA169",
"1. c #96AB70",
"2. c #9CB273",
"3. c #A3BC7A",
"4. c #A1B877",
"5. c #A9C27E",
"6. c #659C82",
"7. c #6EA189",
"8. c #71A38C",
"9. c #78A790",
"0. c #87B68E",
"q. c #84AF9B",
"w. c #8FB6A4",
"e. c #99BDAC",
"r. c #94BAA7",
"t. c #9DCF85",
"y. c #8FD985",
"u. c #91D587",
"i. c #ACC581",
"p. c #ACCB83",
"a. c #B2CD85",
"s. c #B5CF88",
"d. c #A8D889",
"f. c #B5D389",
"g. c #BAD58B",
"h. c #B2DE8E",
"j. c #BCDB8E",
"k. c #A3E38D",
"l. c #ACE791",
"z. c #BDED98",
"x. c #B4E894",
"c. c #ACCEAD",
"v. c #AECBBD",
"b. c #B1CCBF",
"n. c #B9D6B8",
"m. c #C0DC8F",
"M. c #C1DE90",
"N. c #C5E393",
"B. c #C8E696",
"V. c #C4ED99",
"C. c #CDEB99",
"Z. c #C6E997",
"A. c #D1EE9B",
"S. c #C3F29B",
"D. c #CCF39D",
"F. c #D4F49E",
"G. c #CBD8B9",
"H. c #CFF7A0",
"J. c #D5F6A0",
"K. c #D4FAA1",
"L. c #DDFEA5",
"P. c #D8F7A2",
"I. c #BCD4C9",
"U. c #C3D8CE",
"Y. c #CDDFD6",
"T. c #DCEACC",
"R. c #DDF0CE",
"E. c #D5E3DB",
"W. c #E1EDCE",
"Q. c #E3EFD2",
"!. c #E4F3D3",
"~. c #DEE9E4",
"^. c #E5EEEA",
"/. c #ECF3E3",
"(. c #F3FEE1",
"). c #F0F7E6",
/* pixels */
"                                                                                                                                ",
"                                                                                                                                ",
"                                                                                                                                ",
"                                                                                                                                ",
"                                                                                                                                ",
"                                                                                                                                ",
"                                                                                                                                ",
"                                                                                                                                ",
"                                                                                                                                ",
"                                                                                                                                ",
"                                                                                                                                ",
"                                                                                                                                ",
"                                                                                                                                ",
"                                                                                                                                ",
"                                      5 5 e.                                                                                    ",
"                                  I.2 < < < 2 9 q.                                                                              ",
"                                *.1 < D H H ` 6 < 1 9 8.                                                                        ",
"                            Y.4 1 d C H H H H H H _ 0 < 1 9 !.                                                                  ",
"                        ~.0 1 4 P H H H H H H H H H H H ' z.L.(.!.n.                                                            ",
"                      v 4 < ^ C H H H H H H H H H H H H D.L.L.L.L.L.(.R.c.^.                                                    ",
"                  =.4 < f H H H H H H H H H H H L L ] L.L.L.L.L.L.L.L.L.L.(.!.c.~.                                              ",
"              E.4 < < ` H H H H H H H H H H H H L #.F.L.L.L.L.L.L.L.L.L.L.L.L.L.h.0.&.U.                                        ",
"              1 < 0 C H H H H H H K H H H H H H >.L.L.L.L.L.L.L.L.L.L.L.L.K.L.L.L.L.L.d.2 v b.                                  ",
"              5 < < < < 6 k C H H H H H H H H >.L.L.L.L.L.L.L.L.L.L.L.L.L.L.L.L.L.L.L.u.b 4 < 5 u e.                            ",
"              x 7 +./ 7 4 < < < 4 k C C H L l.L.L.L.L.L.L.L.L.L.L.L.L.L.L.L.L.L.L.K.:.H H H T b 4 1 2 9 q.                      ",
"              9 1 H H H H H @.g 4 < < < 1 a.M.F.L.L.L.L.L.L.L.L.L.L.L.L.L.L.L.L.K.y.H H H H H H H A b 2 1 2 6 9.^.              ",
"              2 < 1 1 6 8 K H H H U @.! 5 j.5.4.3.a.B.L.L.L.L.L.L.L.L.L.L.L.L.L.l.K K H H H H H H H H H L b 1 < 1               ",
"              v 5 G 4 < < < < 6 a C H H H F.L.L.C.g.5.4.3.m.A.L.L.L.L.L.L.L.L.V.H H H H H H H H H H H H H H C 8 N               ",
"              v 6 H H H U ^ 5 < < < 1 6 S D.L.L.L.L.L.L.N.s.3.3.a.M.J.P.L.K.H.K H H H H H H H H H H H H H C 8 j 1               ",
"              i 1 p H H H H H H K ( 6 4 1 D.L.L.L.L.L.L.L.L.L.F.M.a.3.i.i.s.c j _ L H H H H H H H H H H H 7 7 5 =.              ",
"              6 < < 1 5 d 8 H H H H H H K D.L.L.L.L.L.L.L.L.L.L.L.L.L.C.D.C.1 < < < 1 d X.E H H H H H C 7 1 i i 2               ",
"              x 7 P f 1 < < 4 4 d 8 H H H F.L.L.. L.L.a.3.L.L.L.L.L.L.L.K.D.H H R f 5 < < 1 < 6 ^ @.E 5 1 5 1 < y               ",
"              5 4 C H H H P j 5 1 1 < 1 r V.A.# & B.& . X L.P.C.L.L.L.L.F.F.H H H H H H  .j 6 1 < < < < z < < 6 x               ",
"              2 < < 4 d Z C H H H P j 4 1 p.. C.O F.> L., 5.: . % L.L.L.L.F.4 0 P C H H H H H H H Z < 5 1 1 i 2 m               ",
"              9 0 @.j 5 < < 5 h A H H H H D.L.L.O L.w L.O C.= s., i.: L.L.z.4 < < < < 2 s p C H H E < 2 < 2 9 x &.              ",
"              5 5 H H H T X.d 4 < < 6 g C L.L.L.: C.= P.# L.& 3., M.B L.Z.X H H C k 7 1 < < 4 < d F 1 m m 2 2 9 N               ",
"              9 f H H H H H H H W ` 0 4 < P.L.L.O P.= F.V L.% 1.> F.% p.3 D.C H H H H H H F 0 1 < < < 9 < < y 6 x               ",
"              6 < < 0 ^ T H H H H H H H ] L.L.L.A.L., # - L.- ,.* F.& : 5.L.1 4 7 a C H H H H H H I 1 2 < v n =.2               ",
"              2 4 ! 7 < < 4 d _ H H H H H K.L.L.L.L.L.q A.<.% $ - L.# 5.w k.' 0 1 < < < 7 a C H H E 4 M n 2 6 9 2               ",
"              y 4 H H K R g 5 4 < 5 g R H F.L.L.L.L.C.. % . i.P.L.L.. F.f.@ H H H U ` f 1 < < < 5 h 1 ) 2 x 9 2 <               ",
"              m 1 J H H H H H U _ g 4 < 1 F.L.L.P.P.. $ g.= & m.L.L.L.L.F.t.G C H H H H H K } g 1 1 < 9 M 1 1 1 5               ",
"              v < < 4 0 ( J H H H H H E / D.D.L.A.# P.% C.= L.= L.L.L.L.L.D.1 < 1 t I H H H H H H W 1 z 1 6 y 1 1               ",
"              -.d J b 7 1 1 4 0 ( K H H H S.K.L.A.. L.$ A.& L.L.L.L.L.L.K.k.H | b 5 < < 4 f F H H Q 2 z 2 2 M y 1               ",
"              i t H H H H Q b 6 < < 4 0 P K.L.L.L.. A.= F.% L.L.L.L.L.L.L.z.H H H H J } g 5 1 < 5 f 2 -.M M z 1 1               ",
"              i 6 H H H H H H H H R ! 6 1 Z.P.L.L.%.o = j.% L.L.L.L.L.L.L.x.C H H H H H H H U ` t 1 1 v i 1 2 z 1               ",
"              y 6 H H H H H H H H H H H H z.P.L.L.L.5.. w o C.L.L.L.L.L.L.h.< 1 0 D C H H H H H H E 2 i 1 9 x 2 1               ",
"              -.1 ~ O.#.T H H H H H H H H z.L.L.L.L.C.; F.$ $ C.L.L.L.L.F.k.+.b 6 1 < 1 d S H H H E 1 4 1 1 9 m 6               ",
"                r.6 i 4 4 7 { $.+.K H H H S.L.L.L.L.B.: J.$ L.o L.L.L.L.F.z.H H H U #.j 5 4 < 5 d A 2 ;.x M m 6 <               ",
"                      ^.U.6.x y 5 6 t / $.D.L.L.L.$ M.> F.$ A.+ L.L.L.L.L.V.4 d Z C H H H E ..t 4 1 < y 1 z 1 < y               ",
"                                ^.I.8.v 6 f.A.P.L.g.= , P.# = P.L.L.L.L.K.D.j 5 1 1 4 t Z C H H H #.1 5 6 5 2 v 7.              ",
"                                          Q.T.W.W.B.3.o - . L.F.L.K.L.K.P.S.H H U  .j 5 1 1 4 d a Y 1 M 6 2 9 &.x               ",
"                                                  E.G.B 4.$ L.L.L.L.L.K.K.L.H H H H H H T X.g 5 < 1 < y i z < < )               ",
"                                                          /.Q.!.N.C.F.P.D.L.O.@.K H H H H H H H E ..1 6.6 < < x ^.              ",
"                                                                  ).Q.Q.Q.L.1 1 1 6 t O.W H H H H E 1 1 < 1 &.Y.                ",
"                                                                              ~.U.w.*.y 2 4 t { $.W < < 1 8.                    ",
"                                                                                          v.6.x 2 1 2 2 E.                      ",
"                                                                                                  E.^.                          ",
"                                                                                                                                ",
"                                                                                                                                ",
"                                                                                                                                ",
"                                                                                                                                ",
"                                                                                                                                ",
"                                                                                                                                ",
"                                                                                                                                "
};
