/* XPM */
static char *_defec9e32984b31990e8136637c5857oyGMEOxnJ4Pj1BY0[] = {
/* columns rows colors chars-per-pixel */
"32 32 7 1 ",
"  c None",
". c black",
"X c #624E1E",
"o c #F44958",
"O c #F47B49",
"+ c #F3865A",
"@ c gray97",
/* pixels */
"                                ",
"                                ",
"                                ",
"                                ",
"                                ",
"             ....               ",
"          ..........            ",
"         .............          ",
"         .............          ",
"        ...............         ",
"        ...............         ",
"        .+++++++++++++.         ",
"      ++.+++++++++++++.++       ",
"      @@.++...+++...++.@@       ",
"      @@.++@X@+++@X@++.@@       ",
"      @+.++@X@+O+@X@++.+@       ",
"       +.++++++O++++++.+        ",
"        .++++++O++++++.         ",
"        .+++++OOO+++++.         ",
"        .+++++++++++++.         ",
"        ..++++ooo++++..         ",
"         .++++ooo++++.          ",
"         .++++++++++..          ",
"         ..+++++++++.           ",
"          ....+++....           ",
"             .....              ",
"                                ",
"                                ",
"                                ",
"                                ",
"                                ",
"                                "
};
