/* XPM */
static char *_77c8c3b25d14231d468519bcb1e253b2YxeHTtH3UC6R0Bj[] = {
/* columns rows colors chars-per-pixel */
"64 64 70 1 ",
"  c #23682D",
". c #23692D",
"X c #266C2E",
"o c #2E7632",
"O c #23782D",
"+ c #2C7C31",
"@ c #296F30",
"# c #256A2E",
"$ c #256B2E",
"% c #277A2F",
"& c #2C7431",
"* c #286F2F",
"= c #286E2F",
"- c #246A2E",
"; c #24792E",
": c #287B2F",
"> c #24692D",
", c #2D7C31",
"< c #2F7833",
"1 c #277B2F",
"2 c #2F7B33",
"3 c #2B7231",
"4 c #2A7030",
"5 c #2F7A33",
"6 c #307933",
"7 c #24792D",
"8 c #23822D",
"9 c #2C7331",
"0 c #267A2E",
"q c #2F7733",
"w c #24832E",
"e c #276C2F",
"r c #238C2D",
"t c #24832D",
"y c #2D8B31",
"u c #2A8930",
"i c #2D7432",
"p c #297E30",
"a c #23962D",
"s c #2F7B32",
"d c #257A2E",
"f c #2B7C31",
"g c #369736",
"h c #2C7B31",
"j c #327B34",
"k c #297030",
"l c #23A02D",
"z c #297830",
"x c #2D7431",
"c c #28792F",
"v c #2E8D32",
"b c #287D2F",
"n c #258D2E",
"m c #277C2F",
"M c #2A7130",
"N c #25842E",
"B c #27902F",
"V c #2C7A31",
"C c #307A33",
"Z c #2E7C32",
"A c #236F2D",
"S c #297B30",
"D c #276D2F",
"F c #307833",
"G c #317F33",
"H c #3E8A39",
"J c #3C8D39",
"K c #25792E",
"L c #2A7C30",
"P c #307B33",
/* pixels */
"                                                                ",
"                                                                ",
"                                                                ",
"                                                                ",
"                                             .                  ",
"                                        X  oOO+ @#              ",
"      $%&$ *= - ;OO:=  $            > $,OOOOOOOOOO<$ ;12 3X     ",
"    >+OOOOOOOOOOOOOOOOOOOO*-  4546OOOOOOOOOOOOOOOOOOOOOOO7      ",
"    OOOOOOOOOOOOOOOOOOOOOOOOOOOOOOOOOOOOOOOOOOOOOOOOOOOOOO=     ",
"   #OOOOOOOO8OOOOOOOOOOOOOOOOOOOOOOOOOOOOOOOOOOOOOOOOOOOOOO     ",
"   *OOOOOO8888OOOOOOOOOOOOOOOOOOOOOOOOOOOOOOOOOOOOOOOOOOOOO9    ",
"    OOOOOO88888OOOOOOOO8888OOOOOOOOOOOOOOOOOOOOOOOOOOOOOOOO+    ",
"    OOOOO8888888888888888888888888OOOOOOOOOOOOOOOOOOOOOOOOO0    ",
"    ,OOOO8888888888888888888888888888888OOOOOO888888OOOOOOOO    ",
"     OOOO88888888888888888888888888888888888888888888OOOOOOO    ",
"     OOOO88888888888888888888888888888888888888888888OOOOOOq    ",
"     -OOOO888888888888888888888888888888888888888888OOOOOOO#    ",
"      3OOO88888888888888888888888888888888888888888OOOOOOOO     ",
"*      OOO8888888888888888888888888888w888888888888OOOOOOOO     ",
"#     eOOOOO788888888888888888888rrrrrtyu8888888888OOOOOOOO5    ",
"      iOOOOOOp8888888888888888888rrrrrrr88888888888OOOOOOOOO>   ",
"      XOOOOOOO88888rrrrr888888rrrrrrrrrr88888888888OOOOOOOOO$   ",
"       OOOOOOO888888rrrrrrrrrrrrrrrrrrrrr88888t88888OOOOOOOO    ",
"       XOOOOOO888888rrrrrrrrrrrrarrrrrrrrrrrrr8t88888OOOOOOs    ",
"        XOOOOOd88888rrrrrrrrrrraaarrrrrrrrrrrrrr88888OOOOOO9    ",
"         3OOOOO88888rrrrrrrrrrraaaaaarrrrrrrrrr888888OOOOOOf    ",
"          OOOOO88888rrrrrrrrrrraaaaaaarrrrarr88888888OOOOOO%    ",
"         >OOOOO88888rrrrrrrraaaaaaaaaaaaaaarg88888888OOOOOOh    ",
"j        kOOOOO88888rrrrrrrraaaaallaaaaarrrrt8888888OOOOOOOz    ",
"        $OOOOOO8888rrrrrrrraaaaaallllaaarrrr88888888OOOOOOO4    ",
"-      eOOOOOOO88888rrrrrrraaaaalllllaaarrrr88888888OOOOOOO     ",
"       %OOOOOOO88888rrrrrrraaaaalllllaaarrrr8888888OOOOOOOO     ",
"       OOOOOOOO88888rrrrrrraaaaalllllaaarrrr8888888OOOOOOOO-    ",
"      xOOOOO88888888rrrrrrraaaallllllaaarrrrr888888OOOOOOOO     ",
"     #OOOOOO88888888rrrrrrraaaaalllllaaaarrrr888888OOOOOOOc     ",
"    >OOOOOOO88888888rrrrrrrraaaaaallllaaaarrr888888OOOOOOO      ",
"    qOOOOOOO88888888rrrrrrrraaaaaaalllaaaarrr888888OOOOOOO>     ",
"    >0OOOOOO888888888rrrrrrrraaaaaaaalaaaaarr888888OOOOOOO      ",
"     >OOOOOO888888888rrrrrrrraaaaaaaaaaaaarrrv88888OOOOOOO      ",
"      XOOOOOO888888888rrrrrrrrrrraaaaaaaarrrrr88888OOOOOOO      ",
"       OOOOOOO88888888rrrrrrrrrrraaaaaaaarrrrr88888OOOOOOO      ",
"       OOOOOOOb8888888rrrrrrrrrrrrrraaaaarrrrrr88888OOOOOO      ",
"      =OOOOOOOO88888888rrrrrrrrrrrrrrrrrrrrrrrn888888OOOOO      ",
"     $mOOOOOOO7888888888rrrrrrrrrrrrrrrrrrrrrr8888888OOOOM      ",
"      OOOOOOOO78888888888888Nrrrrrrrrrrrrrrrr8888888OOOOO       ",
"      <OOOOOOOO888888888888888888rrrrrrrrrrrr8888888OOOOO=      ",
"      -OOOOOOOO888888888888888888888rrrrrrrrB8888888OOOOOV      ",
"       OOOOOOO8888888888888888888888888888888888888OOOOOOO      ",
"       =OOOOO88888888888888888888888888888888888888OOOOOO;      ",
"        OOOOO8888888888888888888888888888888888888OOOOOOOm      ",
"        OOOOO8888888888888888888888888888888888888OOOOOOO7X     ",
"       >OOOOO8888888888888888888888888888888888888OOOOOOOO0     ",
"       sOOOOO8888888888OOOOO7OOOOOOOOOOO8888888888OOOOOOOOO     ",
"      ,OOOOOO888888888OOOOOOOOOOOOOOOOOOOOOO888888OOOOOOOOO     ",
"     COOOOOOOOOOOOOO8OOOOOOOOOOOOOOOOOOOOOOOOOO888OOOOOOOOZ     ",
"     iOOOOOOOOOOOOOOOOOOOOOOOOOOOOOOOOOOOOOOOOOOOOOOOOOOOO6     ",
"     XOOOOOOOOOOOOOOOOOOOOOOOOOOOOOOOOOOOOOOOOOOOOOOOOOOOOC     ",
"      OOC  > $AOOOOOOOOOOOOdOOOOOOOOOOOOOSD OOOOOOOOOOOOOO%     ",
"      ,D       >43 # ko eFGHJK33OOCM,O:o     oOOOOOOOOD OOL     ",
"                                                OOOO$   >       ",
"                                                >kP             ",
"                                                                ",
"                                                                ",
"                       >   -  D>                         -$     "
};
